<svg xmlns="http://www.w3.org/2000/svg" width="50.654" height="91" viewBox="0 0 50.654 91"><defs><style>.a{fill:#ebf3f3;}.b{fill:#3f3d56;}.c{fill:#ff5e6e;}</style></defs><g transform="translate(-4373.716 -1941)"><path class="a" d="M443.479,299.29V287.926h-1.767V299.29a2.356,2.356,0,1,0,1.767,0Z" transform="translate(3965.871 1695.482)"/><path class="b" d="M370,276.237H357.923V217.926h-4.712v58.311H341.136a10.9,10.9,0,0,0-10.9,10.9h50.654a10.9,10.9,0,0,0-10.9-10.9Z" transform="translate(4043.476 1744.867)"/><path class="c" d="M330.323,187.512h50.6l-3.094-38.679a5.359,5.359,0,0,0-5.315-4.906H338.732a5.359,5.359,0,0,0-5.314,4.906Z" transform="translate(4043.417 1797.074)"/></g></svg>