<svg xmlns="http://www.w3.org/2000/svg" width="58.692" height="88.089" viewBox="0 0 58.692 88.089"><defs><style>.a{fill:#d8ed1f;}.b{opacity:0.1;}.c{fill:#ebf3f3;}</style></defs><g transform="translate(-4909.32 -562.063)"><path class="a" d="M999.792,665.744a12.111,12.111,0,1,0,12.111,12.111,12.111,12.111,0,0,0-12.111-12.111Zm0,19.563a7.453,7.453,0,1,1,7.453-7.453,7.453,7.453,0,0,1-7.453,7.453Z" transform="translate(3956.11 -58.446)"/><path class="b" d="M999.792,665.744a12.111,12.111,0,1,0,12.111,12.111,12.111,12.111,0,0,0-12.111-12.111Zm0,19.563a7.453,7.453,0,1,1,7.453-7.453,7.453,7.453,0,0,1-7.453,7.453Z" transform="translate(3956.11 -58.446)"/><path class="a" d="M818.016,531.776H864.6v46.1a6.068,6.068,0,0,1-6.068,6.068H824.084a6.068,6.068,0,0,1-6.068-6.068Z" transform="translate(4091.304 66.206)"/><path class="b" d="M988.154,650.776v43.086a9.083,9.083,0,0,1-9.083,9.083h4.658a9.083,9.083,0,0,0,9.083-9.083V650.776Z" transform="translate(3959.361 -52.794)"/><path class="c" d="M945.71,594.256a2.72,2.72,0,0,0-2.057,1.044c-.611,1.108.5,2.357,1.507,3.118a20.038,20.038,0,0,1,5.1,4.75c1.269,1.963,1.667,4.7.28,6.582-1.811,2.456-6.132,2.984-6.55,6.007-.268,1.941,1.409,3.6,3.109,4.57,4.2,2.4,9.6,3.045,12.644,6.805,1.257-2.585,4.069-4.08,6.872-4.718s5.715-.591,8.557-1.023a2.959,2.959,0,0,0,2.361-1.252c.794-1.612-1.47-3.546-.688-5.164.595-1.232,2.342-1.136,3.618-1.63,2.078-.8,2.934-3.477,2.345-5.625a10.591,10.591,0,0,0-4.007-5.2c-4.72-3.709-10.4-5.89-16.137-7.459-2.67-.73-5.8-1.874-8.577-1.985C951.413,592.966,948.36,593.8,945.71,594.256Z" transform="translate(3972.802 -31)"/></g></svg>