<svg xmlns="http://www.w3.org/2000/svg" width="217.607" height="431.22" viewBox="0 0 217.607 431.22"><defs><style>.a{fill:#6b767a;}.b{fill:#fff;}</style></defs><g transform="translate(0.001 0)"><path class="a" d="M-8488.918,5933.22h-159.336a26.453,26.453,0,0,1-10.353-2.087,26.493,26.493,0,0,1-8.455-5.692,26.464,26.464,0,0,1-5.7-8.442,26.343,26.343,0,0,1-2.09-10.337V5661.02h-.88a1.206,1.206,0,0,1-1.206-1.2v-27.811a1.207,1.207,0,0,1,1.206-1.206h.88V5620.33h-.886a1.268,1.268,0,0,1-1.262-1.265v-27.432a1.268,1.268,0,0,1,1.262-1.259h.886v-14.3h-.91a1.1,1.1,0,0,1-.784-.327,1.1,1.1,0,0,1-.324-.788v-14.971a1.112,1.112,0,0,1,.324-.791,1.116,1.116,0,0,1,.793-.331h.9v-30.313a26.353,26.353,0,0,1,2.09-10.335,26.469,26.469,0,0,1,5.7-8.439,26.512,26.512,0,0,1,8.455-5.691,26.471,26.471,0,0,1,10.353-2.088h159.334a26.483,26.483,0,0,1,10.354,2.086,26.528,26.528,0,0,1,8.457,5.691,26.482,26.482,0,0,1,5.7,8.44,26.357,26.357,0,0,1,2.093,10.336v71.264h1.215a1.712,1.712,0,0,1,1.707,1.7v48.869a1.712,1.712,0,0,1-1.707,1.7h-1.215v254.568A26.343,26.343,0,0,1-8464.4,5917a26.478,26.478,0,0,1-5.7,8.442,26.527,26.527,0,0,1-8.458,5.693A26.472,26.472,0,0,1-8488.918,5933.22Zm-160.765-423.692a16.885,16.885,0,0,0-16.881,16.851V5908.85a16.924,16.924,0,0,0,4.939,11.918,16.739,16.739,0,0,0,11.909,4.924h162.987a16.882,16.882,0,0,0,16.879-16.842V5526.378a16.717,16.717,0,0,0-4.94-11.915,16.78,16.78,0,0,0-11.935-4.936h-29.548v2.925a13.767,13.767,0,0,1-4.07,9.81,13.815,13.815,0,0,1-9.827,4.063h-79.06a13.819,13.819,0,0,1-9.828-4.063,13.772,13.772,0,0,1-4.071-9.81v-2.925Z" transform="translate(8676.998 -5502)"/><g transform="translate(88.688 9.512)"><rect class="b" width="29.679" height="6.027" rx="2.542" transform="translate(0 0.405)"/><circle class="b" cx="3.418" cy="3.418" r="3.418" transform="translate(34.167)"/></g></g></svg>