<svg xmlns="http://www.w3.org/2000/svg" xmlns:xlink="http://www.w3.org/1999/xlink" width="373" height="393" viewBox="0 0 373 393"><defs><style>.a{fill:#cc2121;opacity:0.17;}.b{clip-path:url(#a);}.c,.f{opacity:0.25;}.d,.j{fill:none;}.d{stroke:#535461;stroke-miterlimit:10;stroke-width:2px;}.e,.f{fill:#6b767a;}.g{fill:#ffb9b9;}.h{opacity:0.1;}.i{fill:#3c005a;}.k{opacity:0.05;}.l{fill:#262627;}.m{fill:#757a9b;}.n{fill:#cbcdda;}</style><clipPath id="a"><rect class="a" width="373" height="393" transform="translate(1133 2819)"/></clipPath></defs><g class="b" transform="translate(-1133 -2819)"><g class="c" transform="translate(1139.807 3112.187) rotate(-42)"><path class="d" d="M0,111.567S17.692,67.977,50.749,51.79a71.277,71.277,0,0,0,32.36-31.419A119.93,119.93,0,0,0,91.221,0" transform="translate(4.577 26.077)"/><path class="e" d="M21.268,15.756C17.824,20.085,0,26.422,0,26.422S2.146,7.632,5.59,3.3A10.038,10.038,0,0,1,21.275,15.769Z" transform="translate(95.271 0)"/><path class="e" d="M23.646,19.333C18.4,21.1,0,16.711,0,16.711S12.014,2.105,17.259.342a10.038,10.038,0,0,1,6.387,18.991Z" transform="translate(86.776 30.716)"/><path class="e" d="M19.085,19.748C13.664,18.619,0,5.55,0,5.55S17.742-.993,23.157.13a10.038,10.038,0,1,1-4.072,19.618Z" transform="translate(58.199 70.836)"/><path class="e" d="M21.206,20.025C15.678,19.83,0,9.259,0,9.259S16.381-.19,21.908.005a10.038,10.038,0,1,1-.7,20.02Z" transform="translate(24.082 95.573)"/><path class="e" d="M.02,10.669c.709,5.49,12.692,20.12,12.692,20.12S20.6,13.6,19.889,8.109A10.038,10.038,0,0,0,.02,10.669Z" transform="translate(69.629 24.505)"/><path class="e" d="M1.22,14.834c2.315,5.019,18.125,15.4,18.125,15.4s2.384-18.759.069-23.784A10.038,10.038,0,1,0,1.22,14.834Z" transform="translate(31.382 50.071)"/><path class="e" d="M.555,13.275C2,18.621,15.8,31.52,15.8,31.52s5.515-18.087,4.084-23.433A10.038,10.038,0,1,0,.536,13.275Z" transform="translate(0 85.471)"/><path class="f" d="M21.268,15.756C17.824,20.085,0,26.422,0,26.422S2.146,7.632,5.59,3.3A10.038,10.038,0,0,1,21.275,15.769Z" transform="translate(95.271 0)"/><path class="f" d="M23.646,19.333C18.4,21.1,0,16.711,0,16.711S12.014,2.105,17.259.342a10.038,10.038,0,0,1,6.387,18.991Z" transform="translate(86.776 30.716)"/><path class="f" d="M19.085,19.748C13.664,18.619,0,5.55,0,5.55S17.742-.993,23.157.13a10.038,10.038,0,1,1-4.072,19.618Z" transform="translate(58.199 70.836)"/><path class="f" d="M21.206,20.025C15.678,19.83,0,9.259,0,9.259S16.381-.19,21.908.005a10.038,10.038,0,1,1-.7,20.02Z" transform="translate(24.082 95.573)"/><path class="f" d="M.02,10.669c.709,5.49,12.692,20.12,12.692,20.12S20.6,13.6,19.889,8.109A10.038,10.038,0,0,0,.02,10.669Z" transform="translate(69.629 24.505)"/><path class="f" d="M1.22,14.834c2.315,5.019,18.125,15.4,18.125,15.4s2.384-18.759.069-23.784A10.038,10.038,0,1,0,1.22,14.834Z" transform="translate(31.382 50.071)"/><path class="f" d="M.555,13.275C2,18.621,15.8,31.52,15.8,31.52s5.515-18.087,4.084-23.433A10.038,10.038,0,1,0,.536,13.275Z" transform="translate(0 85.471)"/></g><g class="c" transform="translate(1081 3102.996) rotate(-42)"><path class="d" d="M0,135.5s2.234-47,28.038-73.222A71.239,71.239,0,0,0,48.145,21.914,119.454,119.454,0,0,0,49.042,0" transform="translate(18.865 29.334)"/><path class="e" d="M19.382,12.721c-1.813,5.226-16.538,17.1-16.538,17.1S-1.359,11.378.454,6.152a10.038,10.038,0,0,1,18.928,6.569Z" transform="translate(64.675)"/><path class="e" d="M23.169,18.352C18.778,21.752,0,23.722,0,23.722S6.487,5.955,10.854,2.555a10.038,10.038,0,1,1,12.316,15.8Z" transform="translate(66.534 28.743)"/><path class="e" d="M22.718,19.88C17.234,20.614,0,12.816,0,12.816S14.574.758,20.076.024a10.038,10.038,0,0,1,2.66,19.857Z" transform="translate(49.111 76.451)"/><path class="e" d="M23.583,19.423C18.3,21.073,0,16.286,0,16.286S12.322,1.938,17.6.288a10.038,10.038,0,0,1,5.979,19.123Z" transform="translate(26.356 111.126)"/><path class="e" d="M.795,13.95C3.3,18.894,19.441,28.725,19.441,28.725S21.179,9.9,18.694,4.953a10.038,10.038,0,0,0-17.9,9Z" transform="translate(45.481 32.631)"/><path class="e" d="M3.312,17.49c3.846,3.971,22.2,8.52,22.2,8.52S21.544,7.52,17.692,3.543A10.038,10.038,0,1,0,3.312,17.49Z" transform="translate(17.875 69.432)"/><path class="e" d="M2.171,16.3c3.137,4.561,20.453,12.146,20.453,12.146s-.791-18.9-3.915-23.464A10.038,10.038,0,1,0,2.171,16.273Z" transform="translate(0 113.179)"/></g><g transform="translate(1233.781 2819)"><path class="g" d="M219.47,605.819v6.9c2.754,1.023,5.646-1.355,8.583-1.2,1.713.082,3.269,1.035,4.963,1.324a1.619,1.619,0,0,0,1.255-.182,1.826,1.826,0,0,0,.514-1.186c.627-3.67,1.318-12.548-4.392-13.175C226.177,597.814,224.564,605.33,219.47,605.819Z" transform="translate(-121.55 -348.392)"/><path class="h" d="M219.47,605.819v6.9c2.754,1.023,5.646-1.355,8.583-1.2,1.713.082,3.269,1.035,4.963,1.324a1.619,1.619,0,0,0,1.255-.182,1.826,1.826,0,0,0,.514-1.186c.627-3.67,1.318-12.548-4.392-13.175C226.177,597.814,224.564,605.33,219.47,605.819Z" transform="translate(-121.55 -348.392)"/><path class="i" d="M226.132,604.1c-1.6,3.764-3.99,6.606-6.067,7.447a.523.523,0,0,1-.088.038,2.629,2.629,0,0,1-1.983.056,1.881,1.881,0,0,1-.546-.339c-1.788-1.493-1.713-6.048.276-10.753,2.171-5.144,5.816-8.52,8.156-7.529S228.309,598.952,226.132,604.1Z" transform="translate(-120.319 -346.369)"/><path class="i" d="M226.269,812.968l-.119,1.644s-.772,7.717,7.8,7.61,10.088-6.01,10.088-6.01l-.885-3.921Z" transform="translate(-124.032 -428.139)"/><path class="g" d="M255.147,545.5s-4.153,40.7-3.369,47.913c.514,4.755-1.255,11.481-2.566,15.521a16.763,16.763,0,0,0-.772,6.656c1.255,13.74-3.043,34.236-4.392,36.482-1.437,2.434-1.3,19.135-1.3,19.135l.458,3.921.326,2.767.307,2.647s.709,9.724-.464,12c-.853,1.65-.678,8.821-.521,12.642.063,1.449.125,2.415.125,2.415a2.811,2.811,0,0,1-.715,1.832c-1.06,1.3-3.689,2.786-10.182,2.56-5.188-.182-6.9-2.346-7.3-4.63a9.624,9.624,0,0,1,.671-4.737c.2-.514.358-.822.358-.822l5.646-17.648a35.538,35.538,0,0,1,.119-3.664,13.682,13.682,0,0,1,.872-4.128v-.05c1.179-2.51-1.493-17.171-1.493-17.171-3.915-15.139-2.9-46.665-1.957-48.158s2.177-7.572,2.177-7.572.151-3.607.389-11.845-2.434-23.364-2.434-23.364c-8.859-28.859-.389-38.195-.389-38.195l26.425,6.2Z" transform="translate(-123.505 -322.952)"/><path class="i" d="M247.628,764.072c-2.873.954-8.783,2.767-11.958,2.591a13.683,13.683,0,0,1,.872-4.128c2.591.521,6.983.9,10.76-1.255Z" transform="translate(-127.586 -409.131)"/><path class="i" d="M242.29,811.762c-3.9-2.045-11.255-4.956-17.485-2.07a9.624,9.624,0,0,1,.671-4.737c3.62-.483,11.293-.935,17.4,2.56.063,1.449.125,2.415.125,2.415a2.811,2.811,0,0,1-.715,1.832Z" transform="translate(-123.516 -425.283)"/><path class="g" d="M212.4,488.12v16.1s-12.021,27.975-15.553,33.094a16.313,16.313,0,0,0-2.152,4.423,31.941,31.941,0,0,1-5.195,10.038,38.423,38.423,0,0,0-5.646,11.538c-18.451-6.224,2.039-23.42,2.039-23.42s7.529-16.368,8.156-21.751c.489-4.2,5.715-19.969,7.993-26.714.627-1.882,1.054-3.087,1.054-3.087Z" transform="translate(-105.409 -307.347)"/><path class="j" d="M269.647,587.531s-6.456-4.392-8.965,7.529,7.115,15.057,7.115,15.057Z" transform="translate(-136.751 -344.094)"/><path class="k" d="M269.647,587.531s-6.456-4.392-8.965,7.529,7.115,15.057,7.115,15.057Z" transform="translate(-136.751 -344.094)"/><path class="g" d="M274.011,539.571s-5.985,13.112-5.094,25.93a7.422,7.422,0,0,1-.565,3.463,45.109,45.109,0,0,0-3.394,19.857v.376a11.456,11.456,0,0,0,18.307,8.375c4.392-3.319,9.166-8.846,11.814-17.968a68.043,68.043,0,0,1,2.61-7.478c3.137-7.334,9.179-22.968,7.365-29.732C302.664,533.429,274.011,539.571,274.011,539.571Z" transform="translate(-138.474 -325.753)"/><path class="h" d="M310.994,542.385c-1.048-3.921-7.083-4.956-13.551-4.887,5.979.075,11.293,1.255,12.3,4.887,1.807,6.763-4.247,22.4-7.365,29.732a65.961,65.961,0,0,0-2.61,7.478c-2.654,9.122-7.422,14.656-11.814,17.968a11.292,11.292,0,0,1-6.23,2.3,11.249,11.249,0,0,0,7.485-2.3c4.392-3.313,9.16-8.846,11.814-17.968a65.942,65.942,0,0,1,2.61-7.478C306.746,564.789,312.8,549.149,310.994,542.385Z" transform="translate(-144.746 -325.745)"/><path class="h" d="M224,508.08s-4.63,18.194-5.646,19.292c0,0,30.114,6.035,34.424,10.584l.627-5.176,2.121,1.412s17.41-12.391,32.624,3.137c0,0,7.447-22.586,5.333-26.821s-27.529-.546-27.529-.546Z" transform="translate(-121.133 -314.784)"/><path class="i" d="M224,507.08s-4.63,18.194-5.646,19.292c0,0,30.114,6.035,34.424,10.584l.627-5.176,2.121,1.411s17.41-12.391,32.624,3.137c0,0,7.447-22.586,5.333-26.821s-27.529-.546-27.529-.546Z" transform="translate(-121.133 -314.412)"/><path class="l" d="M165.409,308.3a13.677,13.677,0,0,0,.056,2.836c.207,1.882.5,3.764.816,5.646.094.552.194,1.1.295,1.644.991,5.383,2.271,10.722,3.137,16.13a78.426,78.426,0,0,1,.916,8.357,46.043,46.043,0,0,1-1.336,14.756,29.607,29.607,0,0,1-3.262,7.616,9.643,9.643,0,0,1-2.259,2.71,6.205,6.205,0,0,1-.627.4,10.145,10.145,0,0,1-4.2,1.142c-1,.094-2,.125-3,.125-.791,0-1.587,0-2.378-.063-2.817-.119-5.646-.4-8.451-.383-4.611.038-9.511,1.029-12.824,4.341-3.714,3.714-4.561,9.273-6.129,14.43a26.269,26.269,0,0,1-2.334,5.646,6.274,6.274,0,0,1-2.861,2.842,7.215,7.215,0,0,1-3.3.232l-13.087-1.1c-1.744-.144-3.614-.264-5.113.659-1.688,1.035-2.453,3.093-3.225,4.956a49.161,49.161,0,0,1-6.061,10.665,9.7,9.7,0,0,1-3.883,3.482c-1.794.709-3.8.37-5.7,0-5.948-1.1-12.623-2.71-15.685-8.087-3.545-6.274-.333-14.26,3.821-20.076S78.2,375.86,79.113,368.664c.245-1.932.069-4.109-1.255-5.5-1.041-1.092-2.616-1.506-3.607-2.641-1.744-2.014-.91-5.182.176-7.642a62.292,62.292,0,0,1,11.613-17.567c7.572-8.043,17.692-14.681,20.591-25.5,1.775-6.644.42-13.7.6-20.591.063-2.6.4-5.32,1.838-7.453a10.915,10.915,0,0,1,7.34-4.2c7.29-1.255,15.59,1.688,21.714-2.6,3.821-2.685,5.872-7.742,10.107-9.662,3.645-1.656,7.88-.5,11.569,1.048,6.274,2.616,12.661,7.209,13.671,14.1a18.579,18.579,0,0,1,.163,1.957,31.189,31.189,0,0,0,.307,4.906c.972,4.981,5.439,9.793,3.363,14.43C170.911,302.538,165.924,302.557,165.409,308.3Z" transform="translate(-63.393 -224.021)"/><path class="h" d="M199.824,387.426c-2.265,3.413-4.185,7.071-6.123,10.722a10.145,10.145,0,0,1-4.2,1.142c-1,.094-2,.125-3,.125-.79,0-1.587,0-2.378-.063-2.817-.119-5.646-.4-8.451-.383-4.611.038-9.511,1.029-12.824,4.341-3.714,3.714-4.561,9.273-6.13,14.43h-.678c-3.262,0-6.13-2.064-8.633-4.147a6.173,6.173,0,0,1-1.637-1.788,4.724,4.724,0,0,1-.389-2.685c.364-3.633,2.842-6.644,5.069-9.53a106.409,106.409,0,0,0,6.694-9.75c.941-1.537,1.882-3.237,1.713-5.019-.125-1.443-.935-2.729-1.255-4.134-.86-3.614,1.575-7.215,4.436-9.58s6.274-4.091,8.677-6.933a18.49,18.49,0,0,0,3.821-10.565c.194-2.666.113-5.646,1.926-7.61,2.673-2.9,6.807-1.1,10.126-.828,3.463.295,6.857.753,10.251,1.336.094.552.194,1.1.295,1.644.991,5.383,2.271,10.722,3.137,16.13a78.428,78.428,0,0,1,.916,8.357A46.042,46.042,0,0,1,199.824,387.426Z" transform="translate(-93.923 -253.782)"/><path class="g" d="M238.356,240.007l-12.548,8.576-.96-2.717-2.07-5.86s-24.888-18.194-30.955-24.361-11.393-4.078-11.393-4.078c-6.067,4.5-14.957,6.694-17.253-1.255-1.713-5.9,11.1-8.978,17.824-10.17a10.458,10.458,0,0,1,7.1,1.255c4.592,2.673,12.993,7.485,16.9,9.335,5.546,2.61,27.4,19.762,27.4,20.7,0,.627,2.855,4.5,4.611,6.813C237.792,239.286,238.356,240.007,238.356,240.007Z" transform="translate(-100.516 -199.98)"/><path class="m" d="M322.1,385.12l5.646,44.751,8.783-6.688s-3.557-7.529-1.255-8.884,5.646,7.416,5.646,7.416,22.379,1.255,16.1-11.5l-7.115-9.2L335.9,391.068Z" transform="translate(-159.792 -268.967)"/><path class="h" d="M322.1,385.12l5.646,44.751,8.783-6.688s-3.557-7.529-1.255-8.884,5.646,7.416,5.646,7.416,22.379,1.255,16.1-11.5l-7.115-9.2L335.9,391.068Z" transform="translate(-159.792 -268.967)"/><path class="g" d="M263.525,360.964l-2.717,22.586-18.119,1.468s-19.33-5.515-12.2-19.035c3.237-6.148,1.2-9.831-1.732-11.989a18.117,18.117,0,0,0-7.152-2.855s-.527-34.506,5.533-22.8c2.723,5.264,8.275,7.359,13.564,8.074a43.352,43.352,0,0,0,12.579-.332Z" transform="translate(-122.341 -246.906)"/><path class="h" d="M240.7,336.71a18.475,18.475,0,0,1-11.954,17.283,18.12,18.12,0,0,0-7.156-2.853s-.527-34.506,5.533-22.8c2.723,5.264,8.275,7.359,13.564,8.074A2.529,2.529,0,0,1,240.7,336.71Z" transform="translate(-122.337 -246.906)"/><circle class="g" cx="18.476" cy="18.476" r="18.476" transform="translate(80.786 70.699)"/><path class="h" d="M275.078,262.737l-12.548,8.576-.96-2.717c3.733-1.223,9.486-5.521,12.159-7.616C274.513,262.015,275.078,262.737,275.078,262.737Z" transform="translate(-137.237 -222.71)"/><path class="n" d="M277.054,270.75l-.527,2.4-14.637,4.705a53.918,53.918,0,0,1-4.021-5.157c-1.374-2.089-2.146-3.971-.264-3.727,4.078.521,15.685-9.1,15.685-9.1,1.939-2.177,3.074,4.887,3.532,8.658C276.979,269.84,277.054,270.75,277.054,270.75Z" transform="translate(-135.343 -222.147)"/><path class="h" d="M227.778,488.12v5.741c-1.255,0-6.8-.282-10.358-2.447.627-1.882,1.054-3.087,1.054-3.087Z" transform="translate(-120.786 -307.347)"/><path class="n" d="M228.885,478.062l-.8,3.551-1.65,7.215s-7.842,0-11.657-3.187c-2.34-1.951-1.813-5.019-1.054-7.108a13.138,13.138,0,0,1,1.054-2.252Z" transform="translate(-119.17 -302.935)"/><path class="h" d="M229.268,478.062l-.8,3.551c-3.708,1.957-12.19-2.008-14.361-3.08a13.136,13.136,0,0,1,1.054-2.252Z" transform="translate(-119.553 -302.935)"/><path class="i" d="M213.753,408.62l-1.983,7.635s3.971,23.734,2.4,28.439a24.361,24.361,0,0,0-1.462,7.736s11.5,6.067,15.371,3.037,3.865-15.866,3.865-15.866l8.156-8.363-10.352-14.95Z" transform="translate(-118.681 -277.723)"/><path class="h" d="M258.876,361s9.881,33.094-22.272,25.409l9.3,36.545L227.35,457.46s59.444,10.038,69.482-2.98c0,0-4.862-39.211-2.98-52.386s-5.96-33.728-10.195-35.058S258.876,361,258.876,361Z" transform="translate(-124.486 -259.979)"/><path class="h" d="M258.876,363s9.881,33.094-22.272,25.409l9.3,36.545L227.35,459.46s59.444,10.038,69.482-2.98c0,0-4.862-39.211-2.98-52.386s-5.96-33.728-10.195-35.058S258.876,363,258.876,363Z" transform="translate(-124.486 -260.725)"/><path class="n" d="M258.876,362s9.881,33.094-22.272,25.409l9.3,36.545L227.35,458.46s59.444,10.038,69.482-2.98c0,0-4.862-39.211-2.98-52.386s-5.96-33.728-10.195-35.058S258.876,362,258.876,362Z" transform="translate(-124.486 -260.352)"/><path class="h" d="M268.8,280.255c-1.882.878-6.111,2.033-12.234-.659,0,0,9.624,18.821,10.251,22.379s.627,7.949-.213,8.576-3.344,7.108-3.344,7.108l-9.831.433s6.274,2.51,6.274,7.3,13.8,13.8,21.124,17.36,37.222,14.034,37.222,14.034l13.388,12.943s-5.232-13.6-23.006-25.723-17.567-19.342-17.567-19.342-3.344-25.409-7.736-32.523-6.9-17.353-6.9-17.353-3.513,4.843-5.6,4.975A5.157,5.157,0,0,0,268.8,280.255Z" transform="translate(-134.204 -227.856)"/><path class="h" d="M277.875,276.135l-.527,2.4-14.637,4.705a53.923,53.923,0,0,1-4.021-5.157c6.042,2.6,10.189,1.462,12.071.59a5.019,5.019,0,0,1,1.826-.489c1.587-.1,3.99-2.911,5.057-4.266C277.8,275.225,277.875,276.135,277.875,276.135Z" transform="translate(-136.164 -227.532)"/><path class="i" d="M268.8,279.255c-1.882.878-6.111,2.033-12.234-.659,0,0,9.624,18.821,10.251,22.379s.627,7.949-.213,8.576-3.344,7.108-3.344,7.108l-9.831.433s6.274,2.51,6.274,7.3,13.8,13.8,21.124,17.36,37.222,14.034,37.222,14.034l13.388,12.943s-5.232-13.6-23.006-25.723-17.567-19.342-17.567-19.342-3.344-25.409-7.736-32.523-6.9-17.353-6.9-17.353-3.513,4.843-5.6,4.975A5.156,5.156,0,0,0,268.8,279.255Z" transform="translate(-134.204 -227.483)"/><path class="h" d="M188.6,339.107c.627-1.976.251-4.128.514-6.186.7-5.577,5.954-10.069,5.709-15.685a2.51,2.51,0,0,1,.22-1.543,2.014,2.014,0,0,1,1.361-.671c2.735-.5,5.879-.232,7.911-2.127s1.983-5.326,1.675-8.212c-.169-1.55-.414-3.256-1.6-4.279a6.167,6.167,0,0,0-2.742-1.123q-5.132-1.167-10.32-2.039c-3.488-.59-7.158-1.06-10.477.163s-5.9,4.1-8.263,6.838c-2.227,2.579-4.6,5.678-3.978,9.034.345,1.819,1.531,3.344,2.321,5.019a12.159,12.159,0,0,1-.627,11.356c-1.644,2.66-4.392,4.762-5.057,7.811a7.461,7.461,0,0,0,3.256,7.56C173.5,348.311,186.641,345.337,188.6,339.107Z" transform="translate(-101.293 -235.997)"/><path class="l" d="M187.6,339.107c.627-1.976.251-4.128.514-6.186.7-5.577,5.954-10.069,5.709-15.685a2.509,2.509,0,0,1,.22-1.543,2.014,2.014,0,0,1,1.361-.671c2.735-.5,5.879-.232,7.911-2.127s1.983-5.326,1.675-8.212c-.169-1.55-.414-3.256-1.6-4.279a6.167,6.167,0,0,0-2.742-1.123q-5.132-1.167-10.32-2.039c-3.488-.59-7.158-1.06-10.477.163s-5.9,4.1-8.263,6.838c-2.227,2.579-4.6,5.678-3.978,9.034.345,1.819,1.531,3.344,2.321,5.019a12.159,12.159,0,0,1-.627,11.356c-1.644,2.66-4.392,4.762-5.057,7.811a7.461,7.461,0,0,0,3.256,7.56C172.5,348.311,185.641,345.337,187.6,339.107Z" transform="translate(-100.921 -235.997)"/><path class="h" d="M226.258,372.23s-15.515,12.272-16.036,16.35,1.669,13.7,1.669,13.7L227.369,412s17.88,7.008,4.5,18.715-18.094,36.808-18.094,36.808,6.487,7.736,18.614-14.505c0,0,11.713-12.755,12.234-19.028s2.346-25.516-5.571-37.436c-5.226-7.867-8.068-16.7-10.113-21.274A5.734,5.734,0,0,0,226.258,372.23Z" transform="translate(-118.074 -264.164)"/><path class="i" d="M225.258,372.23s-15.515,12.272-16.036,16.35,1.669,13.7,1.669,13.7L226.369,412s17.88,7.008,4.5,18.715-18.094,36.808-18.094,36.808,6.487,7.736,18.614-14.505c0,0,11.713-12.755,12.234-19.028s2.346-25.516-5.571-37.436c-5.226-7.867-8.068-16.7-10.113-21.274A5.734,5.734,0,0,0,225.258,372.23Z" transform="translate(-117.702 -264.164)"/><path class="h" d="M236.585,465.45s-13.614,4.266-11.958,17.567" transform="translate(-123.419 -298.899)"/><path class="h" d="M199.866,392.65l-3.156,13.7,5.96-6.111Z" transform="translate(-83.444 -244.501)"/><path class="h" d="M224.585,502.99l-4.065,3.08,3.438,2.1Z" transform="translate(-92.316 -285.615)"/><path class="h" d="M310.6,433.262s13.991.452,14.273-4.812" transform="translate(-155.507 -285.112)"/></g><path class="f" d="M1063.681,685.1a7.353,7.353,0,0,0,2.4-3.626,3.227,3.227,0,0,0-1.681-3.7c-1.543-.59-3.193.483-4.442,1.562s-2.685,2.315-4.323,2.083a6.556,6.556,0,0,0,2.033-6.155,2.511,2.511,0,0,0-.565-1.255c-.853-.916-2.409-.521-3.432.2-3.262,2.29-4.172,6.726-4.191,10.709a20.142,20.142,0,0,1-.063-4.392c-.012-1.456-.414-3.137-1.656-3.9a5.02,5.02,0,0,0-2.509-.6c-1.468-.057-3.1.094-4.1,1.167-1.255,1.33-.922,3.57.163,5.019a16.2,16.2,0,0,0,4.247,3.4,9.413,9.413,0,0,1,3.03,2.892,3.019,3.019,0,0,1,.226.521h9.191A25.764,25.764,0,0,0,1063.681,685.1Z" transform="translate(439.906 2524.53)"/><g class="c" transform="translate(-39)"><path class="d" d="M959.039,650.984s-8.815-29.945,1.65-51.966a47.267,47.267,0,0,0,3.827-29.656,79.8,79.8,0,0,0-4.2-13.922" transform="translate(510.495 2562.926)"/><path class="e" d="M965.628,529.3c0,3.664-6.644,14.3-6.644,14.3s-6.644-10.665-6.644-14.3a6.644,6.644,0,0,1,13.288,0Z" transform="translate(511.698 2575.14)"/><path class="e" d="M983.071,559.541c-1.995,3.08-13.351,8.4-13.351,8.4s.207-12.548,2.2-15.615a6.643,6.643,0,1,1,11.156,7.216Z" transform="translate(505.222 2565.218)"/><path class="e" d="M980.89,613.53c-3.275,1.65-15.76.508-15.76.508s6.506-10.716,9.781-12.372a6.643,6.643,0,1,1,5.98,11.865Z" transform="translate(506.932 2545.967)"/><path class="e" d="M971.072,655.682c-2.955,2.183-15.452,3.137-15.452,3.137s4.6-11.663,7.528-13.846a6.644,6.644,0,0,1,7.905,10.666Z" transform="translate(510.476 2529.99)"/><path class="e" d="M946.307,573.378c2.629,2.56,14.888,5.207,14.888,5.207s-3-12.177-5.646-14.731a6.64,6.64,0,1,0-9.254,9.524Z" transform="translate(514.701 2560.49)"/><path class="e" d="M934.367,621.7c3.275,1.656,15.766.515,15.766.515s-6.506-10.722-9.756-12.372a6.644,6.644,0,0,0-5.985,11.857Z" transform="translate(519.684 2542.888)"/><path class="e" d="M930.439,670.941c2.949,2.177,15.452,3.137,15.452,3.137s-4.6-11.669-7.529-13.853a6.644,6.644,0,1,0-7.9,10.665Z" transform="translate(520.952 2524.441)"/><path class="e" d="M965.628,529.3c0,3.664-6.644,14.3-6.644,14.3s-6.644-10.665-6.644-14.3a6.644,6.644,0,0,1,13.288,0Z" transform="translate(511.698 2575.14)"/><path class="e" d="M983.071,559.541c-1.995,3.08-13.351,8.4-13.351,8.4s.207-12.548,2.2-15.615a6.643,6.643,0,1,1,11.156,7.216Z" transform="translate(505.222 2565.218)"/><path class="e" d="M980.89,613.53c-3.275,1.65-15.76.508-15.76.508s6.506-10.716,9.781-12.372a6.643,6.643,0,1,1,5.98,11.865Z" transform="translate(506.932 2545.967)"/><path class="e" d="M971.072,655.682c-2.955,2.183-15.452,3.137-15.452,3.137s4.6-11.663,7.528-13.846a6.644,6.644,0,0,1,7.905,10.666Z" transform="translate(510.476 2529.99)"/><path class="e" d="M946.307,573.378c2.629,2.56,14.888,5.207,14.888,5.207s-3-12.177-5.646-14.731a6.64,6.64,0,1,0-9.254,9.524Z" transform="translate(514.701 2560.49)"/><path class="e" d="M934.367,621.7c3.275,1.656,15.766.515,15.766.515s-6.506-10.722-9.756-12.372a6.644,6.644,0,0,0-5.985,11.857Z" transform="translate(519.684 2542.888)"/><path class="e" d="M930.439,670.941c2.949,2.177,15.452,3.137,15.452,3.137s-4.6-11.669-7.529-13.853a6.644,6.644,0,1,0-7.9,10.665Z" transform="translate(520.952 2524.441)"/></g></g></svg>