<svg xmlns="http://www.w3.org/2000/svg" width="580" height="420.802" viewBox="0 0 580 420.802"><defs><style>.a{fill:#6b767a;}.b{fill:#fff;}.c{opacity:0.35;}.d{opacity:0.1;}</style></defs><g transform="translate(-541 -157)"><g transform="translate(-3916 5197)"><path class="a" d="M2578,748H2014a8.009,8.009,0,0,1-8-8V421a8.009,8.009,0,0,1,8-8h564a8.009,8.009,0,0,1,8,8V740A8.009,8.009,0,0,1,2578,748ZM2025,428a4,4,0,0,0-4,4V694a4,4,0,0,0,4,4h542a4.005,4.005,0,0,0,4-4V432a4,4,0,0,0-4-4Z" transform="translate(2451 -5453)"/><circle class="b" cx="7.219" cy="7.219" r="7.219" transform="translate(4740 -4736.699)"/></g><g class="c" transform="translate(-4282.046 5449.774)"><path class="a" d="M620.151,728.048v4.285H493.38v-3.49a41.671,41.671,0,0,0,2.868-76.963H619.315a41.7,41.7,0,0,0,.836,76.168Z" transform="translate(4556.564 -5609.654)"/><path class="d" d="M620.737,651.89A41.737,41.737,0,0,0,597.7,679.521h-76.99A41.738,41.738,0,0,0,497.67,651.89Z" transform="translate(4555.143 -5609.658)"/><path class="d" d="M620.151,763.626v4.285H493.38v-3.49a41.585,41.585,0,0,0,9.774-5.2H612.4A41.776,41.776,0,0,0,620.151,763.626Z" transform="translate(4556.564 -5645.232)"/><rect class="a" width="210.593" height="12.702" rx="6.351" transform="translate(5008.046 -4884.675)"/></g></g></svg>